<?xml version="1.0" encoding="UTF-8" standalone="no"?>
<!-- Created with Inkscape (http://www.inkscape.org/) -->

<svg
   xmlns:dc="http://purl.org/dc/elements/1.1/"
   xmlns:cc="http://creativecommons.org/ns#"
   xmlns:rdf="http://www.w3.org/1999/02/22-rdf-syntax-ns#"
   xmlns:svg="http://www.w3.org/2000/svg"
   xmlns="http://www.w3.org/2000/svg"
   xmlns:xlink="http://www.w3.org/1999/xlink"
   xmlns:sodipodi="http://sodipodi.sourceforge.net/DTD/sodipodi-0.dtd"
   xmlns:inkscape="http://www.inkscape.org/namespaces/inkscape"
   width="40"
   height="40"
   id="svg3352"
   version="1.1"
   inkscape:version="0.48.2 r9819"
   sodipodi:docname="icon-m-add-application.svg">
  <defs
     id="defs3354">
    <linearGradient
       id="linearGradient24536">
      <stop
         style="stop-color:#010000;stop-opacity:1;"
         offset="0"
         id="stop24538" />
      <stop
         style="stop-color:#010000;stop-opacity:0.27692309;"
         offset="1"
         id="stop24540" />
    </linearGradient>
    <linearGradient
       inkscape:collect="always"
       id="linearGradient24528">
      <stop
         style="stop-color:#010000;stop-opacity:1;"
         offset="0"
         id="stop24530" />
      <stop
         style="stop-color:#010000;stop-opacity:0;"
         offset="1"
         id="stop24532" />
    </linearGradient>
    <linearGradient
       inkscape:collect="always"
       id="linearGradient24520">
      <stop
         style="stop-color:#010000;stop-opacity:1;"
         offset="0"
         id="stop24522" />
      <stop
         style="stop-color:#010000;stop-opacity:0;"
         offset="1"
         id="stop24524" />
    </linearGradient>
    <linearGradient
       inkscape:collect="always"
       id="linearGradient24512">
      <stop
         style="stop-color:#000000;stop-opacity:1;"
         offset="0"
         id="stop24514" />
      <stop
         style="stop-color:#000000;stop-opacity:0;"
         offset="1"
         id="stop24516" />
    </linearGradient>
    <linearGradient
       inkscape:collect="always"
       xlink:href="#linearGradient16792"
       id="linearGradient4656"
       gradientUnits="userSpaceOnUse"
       gradientTransform="matrix(0,1.5480284,-1.5480284,0,-272.04105,-201.37165)"
       x1="465.10706"
       y1="-224.94612"
       x2="478.95877"
       y2="-224.94612" />
    <linearGradient
       id="linearGradient16792">
      <stop
         style="stop-color:#000000;stop-opacity:1;"
         offset="0"
         id="stop16794" />
      <stop
         id="stop16800"
         offset="0.72602737"
         style="stop-color:#000000;stop-opacity:0.70196078;" />
      <stop
         style="stop-color:#000000;stop-opacity:0.40769231;"
         offset="1"
         id="stop16796" />
    </linearGradient>
    <linearGradient
       y2="-224.94612"
       x2="478.95877"
       y1="-224.94612"
       x1="465.10706"
       gradientTransform="matrix(0,1.5480284,-1.5480284,0,294.34846,-273.14389)"
       gradientUnits="userSpaceOnUse"
       id="linearGradient3350"
       xlink:href="#linearGradient16792"
       inkscape:collect="always" />
    <linearGradient
       inkscape:collect="always"
       xlink:href="#linearGradient24512"
       id="linearGradient24518"
       x1="626.0285"
       y1="449.19083"
       x2="626.38568"
       y2="466.47656"
       gradientUnits="userSpaceOnUse"
       gradientTransform="translate(-1.5475408,-0.04247231)" />
    <linearGradient
       inkscape:collect="always"
       xlink:href="#linearGradient24520"
       id="linearGradient24526"
       x1="626.01514"
       y1="454.12155"
       x2="626.05981"
       y2="471.65723"
       gradientUnits="userSpaceOnUse"
       gradientTransform="translate(-1.0118265,-0.5781866)" />
    <linearGradient
       inkscape:collect="always"
       xlink:href="#linearGradient24528"
       id="linearGradient24534"
       x1="616.72949"
       y1="451.01437"
       x2="616.7027"
       y2="466.47867"
       gradientUnits="userSpaceOnUse" />
    <linearGradient
       inkscape:collect="always"
       xlink:href="#linearGradient24536"
       id="linearGradient24542"
       x1="616.97943"
       y1="449.30011"
       x2="617.16693"
       y2="466.30011"
       gradientUnits="userSpaceOnUse"
       gradientTransform="translate(-1.0118265,-0.5781866)" />
    <linearGradient
       inkscape:collect="always"
       xlink:href="#linearGradient24520"
       id="linearGradient24546"
       gradientUnits="userSpaceOnUse"
       x1="625.87225"
       y1="453.87155"
       x2="626.05981"
       y2="471.65723"
       gradientTransform="translate(-9.6189622,-0.57818517)" />
    <linearGradient
       inkscape:collect="always"
       xlink:href="#linearGradient24512"
       id="linearGradient24555"
       gradientUnits="userSpaceOnUse"
       gradientTransform="translate(-1.5475408,-0.04247231)"
       x1="626.0285"
       y1="449.19083"
       x2="626.38568"
       y2="466.47656" />
    <linearGradient
       inkscape:collect="always"
       xlink:href="#linearGradient24536"
       id="linearGradient24557"
       gradientUnits="userSpaceOnUse"
       gradientTransform="translate(-1.0118265,-0.5781866)"
       x1="616.97943"
       y1="449.30011"
       x2="617.16693"
       y2="466.30011" />
    <linearGradient
       inkscape:collect="always"
       xlink:href="#linearGradient24520"
       id="linearGradient24559"
       gradientUnits="userSpaceOnUse"
       gradientTransform="translate(-1.0118265,-0.5781866)"
       x1="626.01514"
       y1="454.12155"
       x2="626.05981"
       y2="471.65723" />
    <linearGradient
       inkscape:collect="always"
       xlink:href="#linearGradient24520"
       id="linearGradient24561"
       gradientUnits="userSpaceOnUse"
       gradientTransform="translate(-9.6189622,-0.57818517)"
       x1="625.87225"
       y1="453.87155"
       x2="626.05981"
       y2="471.65723" />
  </defs>
  <sodipodi:namedview
     id="base"
     pagecolor="#ffffff"
     bordercolor="#666666"
     borderopacity="1.0"
     inkscape:pageopacity="0.0"
     inkscape:pageshadow="2"
     inkscape:zoom="19.025"
     inkscape:cx="20"
     inkscape:cy="20"
     inkscape:document-units="px"
     inkscape:current-layer="layer1"
     showgrid="false"
     fit-margin-top="0"
     fit-margin-left="0"
     fit-margin-right="0"
     fit-margin-bottom="0"
     inkscape:window-width="1605"
     inkscape:window-height="908"
     inkscape:window-x="160"
     inkscape:window-y="66"
     inkscape:window-maximized="0" />
  <metadata
     id="metadata3357">
    <rdf:RDF>
      <cc:Work
         rdf:about="">
        <dc:format>image/svg+xml</dc:format>
        <dc:type
           rdf:resource="http://purl.org/dc/dcmitype/StillImage" />
        <dc:title></dc:title>
      </cc:Work>
    </rdf:RDF>
  </metadata>
  <g
     inkscape:label="Layer 1"
     inkscape:groupmode="layer"
     id="layer1"
     transform="translate(-609.27857,-428.79789)">
    <g
       id="g24548"
       transform="matrix(2.0013853,0,0,2.0013853,-612.20153,-467.05252)">
      <rect
         ry="1.25"
         style="fill:url(#linearGradient24555);fill-opacity:1;fill-rule:evenodd;stroke:none"
         id="rect24438"
         width="8.0714283"
         height="8.0714283"
         x="620.62384"
         y="449.07693" />
      <path
         id="rect24455"
         d="m 613.3605,450.50095 c -0.6925,0 -1.25,0.5575 -1.25,1.25 l 0,4.65625 c 0,0.6925 0.5575,1.25 1.25,1.25 l 4.6875,0 c 0.6925,0 1.25,-0.5575 1.25,-1.25 l 0,-4.65625 c 0,-0.6925 -0.5575,-1.25 -1.25,-1.25 l -4.6875,0 z m 0.6875,1.03125 3.34375,0 c 0.49267,0 0.875,0.41358 0.875,0.90625 l 0,3.28125 c 0,0.49267 -0.38233,0.90625 -0.875,0.90625 l -3.34375,0 c -0.49267,0 -0.875,-0.41358 -0.875,-0.90625 l 0,-3.28125 c 0,-0.49267 0.38233,-0.90625 0.875,-0.90625 z"
         style="fill:url(#linearGradient24557);fill-opacity:1;stroke:none"
         inkscape:connector-curvature="0" />
      <path
         id="path24462"
         d="m 621.96764,458.82237 c -0.6925,0 -1.25,0.5575 -1.25,1.25 l 0,4.65625 c 0,0.6925 0.5575,1.25 1.25,1.25 l 4.6875,0 c 0.6925,0 1.25,-0.5575 1.25,-1.25 l 0,-4.65625 c 0,-0.6925 -0.5575,-1.25 -1.25,-1.25 l -4.6875,0 z m 0.6875,1.03125 3.34375,0 c 0.49268,0 0.875,0.41358 0.875,0.90625 l 0,3.28125 c 0,0.49268 -0.38232,0.90625 -0.875,0.90625 l -3.34375,0 c -0.49267,0 -0.875,-0.41357 -0.875,-0.90625 l 0,-3.28125 c 0,-0.49267 0.38233,-0.90625 0.875,-0.90625 z"
         style="fill:url(#linearGradient24559);fill-opacity:1;stroke:none"
         inkscape:connector-curvature="0" />
      <path
         inkscape:connector-curvature="0"
         style="fill:url(#linearGradient24561);fill-opacity:1;stroke:none"
         d="m 613.3605,458.82237 c -0.6925,0 -1.25,0.5575 -1.25,1.25 l 0,4.65625 c 0,0.6925 0.5575,1.25 1.25,1.25 l 4.6875,0 c 0.6925,0 1.25,-0.5575 1.25,-1.25 l 0,-4.65625 c 0,-0.6925 -0.5575,-1.25 -1.25,-1.25 l -4.6875,0 z m 0.6875,1.03125 3.34375,0 c 0.49268,0 0.875,0.41358 0.875,0.90625 l 0,3.28125 c 0,0.49268 -0.38232,0.90625 -0.875,0.90625 l -3.34375,0 c -0.49267,0 -0.875,-0.41357 -0.875,-0.90625 l 0,-3.28125 c 0,-0.49267 0.38233,-0.90625 0.875,-0.90625 z"
         id="path24544" />
      <path
         inkscape:connector-curvature="0"
         d="m 626.99531,452.22308 0,1.58616 -4.47856,0 0,-1.58616 z m -3.03236,-1.44621 1.58616,0 0,4.47856 -1.58616,0 z"
         style="fill:#fff7ff;fill-opacity:1;stroke:none"
         id="path24451" />
    </g>
  </g>
</svg>
