<?xml version="1.0" encoding="UTF-8" standalone="no"?>
<!-- Created with Inkscape (http://www.inkscape.org/) -->

<svg
   xmlns:dc="http://purl.org/dc/elements/1.1/"
   xmlns:cc="http://creativecommons.org/ns#"
   xmlns:rdf="http://www.w3.org/1999/02/22-rdf-syntax-ns#"
   xmlns:svg="http://www.w3.org/2000/svg"
   xmlns="http://www.w3.org/2000/svg"
   xmlns:xlink="http://www.w3.org/1999/xlink"
   xmlns:sodipodi="http://sodipodi.sourceforge.net/DTD/sodipodi-0.dtd"
   xmlns:inkscape="http://www.inkscape.org/namespaces/inkscape"
   width="40"
   height="40"
   id="svg3352"
   version="1.1"
   inkscape:version="0.48.2 r9819"
   sodipodi:docname="icon-m-add-application.svg">
  <defs
     id="defs3354">
    <linearGradient
       id="linearGradient24536">
      <stop
         style="stop-color:#010000;stop-opacity:1;"
         offset="0"
         id="stop24538" />
      <stop
         style="stop-color:#2d2d2b;stop-opacity:0.69999999;"
         offset="1"
         id="stop24540" />
    </linearGradient>
    <linearGradient
       id="linearGradient24520">
      <stop
         style="stop-color:#f0f0f0;stop-opacity:1;"
         offset="0"
         id="stop24522" />
      <stop
         style="stop-color:#282828;stop-opacity:1;"
         offset="1"
         id="stop24524" />
    </linearGradient>
    <linearGradient
       id="linearGradient24512">
      <stop
         style="stop-color:#000000;stop-opacity:1;"
         offset="0"
         id="stop24514" />
      <stop
         style="stop-color:#404040;stop-opacity:1;"
         offset="1"
         id="stop24516" />
    </linearGradient>
    <linearGradient
       inkscape:collect="always"
       xlink:href="#linearGradient16792"
       id="linearGradient4656"
       gradientUnits="userSpaceOnUse"
       gradientTransform="matrix(0,1.5480284,-1.5480284,0,-272.04105,-201.37165)"
       x1="465.10706"
       y1="-224.94612"
       x2="478.95877"
       y2="-224.94612" />
    <linearGradient
       id="linearGradient16792">
      <stop
         style="stop-color:#000000;stop-opacity:1;"
         offset="0"
         id="stop16794" />
      <stop
         id="stop16800"
         offset="0.72602737"
         style="stop-color:#000000;stop-opacity:0.70196078;" />
      <stop
         style="stop-color:#000000;stop-opacity:0.40769231;"
         offset="1"
         id="stop16796" />
    </linearGradient>
    <linearGradient
       inkscape:collect="always"
       xlink:href="#linearGradient24512"
       id="linearGradient24703"
       gradientUnits="userSpaceOnUse"
       gradientTransform="translate(600.92704,422.45744)"
       x1="10.249672"
       y1="7.2273331"
       x2="10.249672"
       y2="21.525856" />
    <linearGradient
       inkscape:collect="always"
       xlink:href="#linearGradient24512"
       id="linearGradient24711"
       gradientUnits="userSpaceOnUse"
       gradientTransform="translate(600.92704,422.45744)"
       x1="10.249672"
       y1="7.2273331"
       x2="10.249672"
       y2="21.525856" />
    <linearGradient
       inkscape:collect="always"
       xlink:href="#linearGradient24512"
       id="linearGradient24719"
       gradientUnits="userSpaceOnUse"
       gradientTransform="translate(600.92704,422.45744)"
       x1="10.249672"
       y1="7.2273331"
       x2="10.249672"
       y2="21.525856" />
  </defs>
  <sodipodi:namedview
     id="base"
     pagecolor="#ffffff"
     bordercolor="#666666"
     borderopacity="1.0"
     inkscape:pageopacity="0.0"
     inkscape:pageshadow="2"
     inkscape:zoom="19.025"
     inkscape:cx="20"
     inkscape:cy="22.102497"
     inkscape:document-units="px"
     inkscape:current-layer="layer1"
     showgrid="false"
     fit-margin-top="0"
     fit-margin-left="0"
     fit-margin-right="0"
     fit-margin-bottom="0"
     inkscape:window-width="1605"
     inkscape:window-height="908"
     inkscape:window-x="160"
     inkscape:window-y="66"
     inkscape:window-maximized="0" />
  <metadata
     id="metadata3357">
    <rdf:RDF>
      <cc:Work
         rdf:about="">
        <dc:format>image/svg+xml</dc:format>
        <dc:type
           rdf:resource="http://purl.org/dc/dcmitype/StillImage" />
        <dc:title></dc:title>
      </cc:Work>
    </rdf:RDF>
  </metadata>
  <g
     inkscape:label="Layer 1"
     inkscape:groupmode="layer"
     id="layer1"
     transform="translate(-609.27857,-428.79789)">
    <g
       id="g24699"
       transform="translate(9.1458607,6.0972404)">
      <path
         inkscape:connector-curvature="0"
         id="rect24682"
         d="m 606.14579,429.70744 c -1.15022,0 -2.0625,0.94353 -2.0625,2.09375 l 0,9.96875 c 0,1.15023 0.91228,2.09375 2.0625,2.09375 l 10,0 c 1.15022,0 2.0625,-0.94352 2.0625,-2.09375 l 0,-9.96875 c 0,-1.15022 -0.91228,-2.09375 -2.0625,-2.09375 l -10,0 z m 1.375,1.9375 7.25,0 c 0.8338,0 1.5,0.69745 1.5,1.53125 l 0,7.21875 c 0,0.83381 -0.6662,1.5 -1.5,1.5 l -7.25,0 c -0.83381,0 -1.5,-0.66619 -1.5,-1.5 l 0,-7.21875 c 0,-0.8338 0.66619,-1.53125 1.5,-1.53125 z"
         style="fill:url(#linearGradient24703);fill-opacity:1;stroke:none" />
      <rect
         ry="1.5050635"
         y="431.66074"
         x="606.02094"
         height="10.249672"
         width="10.249672"
         id="rect24694"
         style="fill:#505050;fill-opacity:0.50196078;stroke:none" />
    </g>
    <g
       transform="translate(9.1984231,21.392904)"
       id="g24705">
      <path
         style="fill:url(#linearGradient24711);fill-opacity:1;stroke:none"
         d="m 606.14579,429.70744 c -1.15022,0 -2.0625,0.94353 -2.0625,2.09375 l 0,9.96875 c 0,1.15023 0.91228,2.09375 2.0625,2.09375 l 10,0 c 1.15022,0 2.0625,-0.94352 2.0625,-2.09375 l 0,-9.96875 c 0,-1.15022 -0.91228,-2.09375 -2.0625,-2.09375 l -10,0 z m 1.375,1.9375 7.25,0 c 0.8338,0 1.5,0.69745 1.5,1.53125 l 0,7.21875 c 0,0.83381 -0.6662,1.5 -1.5,1.5 l -7.25,0 c -0.83381,0 -1.5,-0.66619 -1.5,-1.5 l 0,-7.21875 c 0,-0.8338 0.66619,-1.53125 1.5,-1.53125 z"
         id="path24707"
         inkscape:connector-curvature="0" />
      <rect
         style="fill:#505050;fill-opacity:0.50196078;stroke:none"
         id="rect24709"
         width="10.249672"
         height="10.249672"
         x="606.02094"
         y="431.66074"
         ry="1.5050635" />
    </g>
    <g
       id="g24713"
       transform="translate(24.914586,21.392904)">
      <path
         inkscape:connector-curvature="0"
         id="path24715"
         d="m 606.14579,429.70744 c -1.15022,0 -2.0625,0.94353 -2.0625,2.09375 l 0,9.96875 c 0,1.15023 0.91228,2.09375 2.0625,2.09375 l 10,0 c 1.15022,0 2.0625,-0.94352 2.0625,-2.09375 l 0,-9.96875 c 0,-1.15022 -0.91228,-2.09375 -2.0625,-2.09375 l -10,0 z m 1.375,1.9375 7.25,0 c 0.8338,0 1.5,0.69745 1.5,1.53125 l 0,7.21875 c 0,0.83381 -0.6662,1.5 -1.5,1.5 l -7.25,0 c -0.83381,0 -1.5,-0.66619 -1.5,-1.5 l 0,-7.21875 c 0,-0.8338 0.66619,-1.53125 1.5,-1.53125 z"
         style="fill:url(#linearGradient24719);fill-opacity:1;stroke:none" />
      <rect
         ry="1.5050635"
         y="431.66074"
         x="606.02094"
         height="10.249672"
         width="10.249672"
         id="rect24717"
         style="fill:#505050;fill-opacity:0.50196078;stroke:none" />
    </g>
    <g
       id="g24670"
       transform="matrix(0.04742628,0,0,0.04126164,624.5646,429.21306)">
      <polygon
         id="polygon24644"
         points="437.367,100.62 404.321,470.819 255.778,512 107.644,470.877 74.633,100.62 "
         style="fill:#e44d26" />
      <polygon
         id="polygon24646"
         points="404.27,130.894 256,130.894 256,480.523 376.03,447.246 "
         style="fill:#f16529" />
      <polygon
         id="polygon24648"
         points="191.76,221.716 256,221.716 256,176.305 255.843,176.305 142.132,176.305 143.219,188.488 154.38,313.627 256,313.627 256,268.217 195.91,268.217 "
         style="fill:#ebebeb" />
      <polygon
         id="polygon24650"
         points="177.419,336.333 156.409,336.333 162.771,407.634 255.791,433.457 256,433.399 256,386.153 255.801,386.206 205.227,372.55 201.994,336.333 "
         style="fill:#ebebeb" />
      <path
         id="path24652"
         d="m 108.382,0 h 23.077 v 22.8 h 21.11 V 0 h 23.078 V 69.044 H 152.57 v -23.12 h -21.11 v 23.12 H 108.383 V 0 z"
         inkscape:connector-curvature="0" />
      <path
         id="path24654"
         d="M 205.994,22.896 H 185.678 V 0 h 63.72 V 22.896 H 229.073 V 69.044 H 205.995 V 22.896 z"
         inkscape:connector-curvature="0" />
      <path
         id="path24656"
         d="m 259.511,0 h 24.063 L 298.376,24.26 313.163,0 h 24.072 V 69.044 H 314.253 V 34.822 l -15.877,24.549 h -0.397 L 282.091,34.822 v 34.222 h -22.58 V 0 z"
         inkscape:connector-curvature="0" />
      <path
         id="path24658"
         d="m 348.72,0 h 23.084 v 46.222 h 32.453 V 69.044 H 348.72 V 0 z"
         inkscape:connector-curvature="0" />
      <polygon
         id="polygon24660"
         points="255.843,268.217 255.843,313.627 311.761,313.627 306.49,372.521 255.843,386.191 255.843,433.435 348.937,407.634 349.62,399.962 360.291,280.411 361.399,268.217 349.162,268.217 "
         style="fill:#ffffff" />
      <polygon
         id="polygon24662"
         points="255.843,221.605 255.843,221.716 365.385,221.716 365.385,221.716 365.531,221.716 366.442,211.509 368.511,188.488 369.597,176.305 255.843,176.305 255.843,204.509 "
         style="fill:#ffffff" />
    </g>
  </g>
</svg>
